<mxfile host="65bd71144e">
    <diagram name="Página-1" id="QeusdAuTyGBngCC2jlD8">
        <mxGraphModel dx="387" dy="1495" grid="1" gridSize="10" guides="1" tooltips="1" connect="1" arrows="1" fold="1" page="1" pageScale="1" pageWidth="827" pageHeight="1169" math="0" shadow="0">
            <root>
                <mxCell id="0"/>
                <mxCell id="1" parent="0"/>
                <mxCell id="UbE4j-iB06DFf-TdbC5P-30" value="Antiguo SIGED" style="swimlane;whiteSpace=wrap;html=1;" parent="1" vertex="1">
                    <mxGeometry x="20" y="-100" width="730" height="340" as="geometry"/>
                </mxCell>
                <mxCell id="UbE4j-iB06DFf-TdbC5P-1" value="Usuarios" style="image;aspect=fixed;html=1;points=[];align=center;fontSize=12;image=img/lib/azure2/intune/Devices.svg;" parent="UbE4j-iB06DFf-TdbC5P-30" vertex="1">
                    <mxGeometry x="80" y="180" width="68" height="60" as="geometry"/>
                </mxCell>
                <mxCell id="UbE4j-iB06DFf-TdbC5P-3" value="SIGED- Backend" style="swimlane;" parent="UbE4j-iB06DFf-TdbC5P-30" vertex="1">
                    <mxGeometry x="590" y="222.5" width="120" height="70" as="geometry">
                        <mxRectangle x="585" y="260" width="90" height="30" as="alternateBounds"/>
                    </mxGeometry>
                </mxCell>
                <mxCell id="UbE4j-iB06DFf-TdbC5P-12" style="edgeStyle=orthogonalEdgeStyle;rounded=0;orthogonalLoop=1;jettySize=auto;html=1;startArrow=classic;startFill=1;entryX=0;entryY=0.5;entryDx=0;entryDy=0;exitX=1;exitY=0.5;exitDx=0;exitDy=0;" parent="UbE4j-iB06DFf-TdbC5P-30" source="UbE4j-iB06DFf-TdbC5P-23" target="UbE4j-iB06DFf-TdbC5P-3" edge="1">
                    <mxGeometry relative="1" as="geometry">
                        <mxPoint x="625" y="230" as="targetPoint"/>
                        <mxPoint x="545" y="230" as="sourcePoint"/>
                    </mxGeometry>
                </mxCell>
                <mxCell id="UbE4j-iB06DFf-TdbC5P-10" style="edgeStyle=orthogonalEdgeStyle;rounded=0;orthogonalLoop=1;jettySize=auto;html=1;entryX=0;entryY=0.5;entryDx=0;entryDy=0;" parent="UbE4j-iB06DFf-TdbC5P-30" target="UbE4j-iB06DFf-TdbC5P-23" edge="1">
                    <mxGeometry relative="1" as="geometry">
                        <mxPoint x="328" y="100.0344827586207" as="sourcePoint"/>
                        <mxPoint x="405" y="233.9999999999999" as="targetPoint"/>
                        <Array as="points">
                            <mxPoint x="370" y="100"/>
                            <mxPoint x="370" y="258"/>
                            <mxPoint x="420" y="258"/>
                        </Array>
                    </mxGeometry>
                </mxCell>
                <mxCell id="UbE4j-iB06DFf-TdbC5P-14" value="redirección&lt;br&gt;(Token)" style="edgeLabel;html=1;align=center;verticalAlign=middle;resizable=0;points=[];" parent="UbE4j-iB06DFf-TdbC5P-10" vertex="1" connectable="0">
                    <mxGeometry x="0.16" y="-1" relative="1" as="geometry">
                        <mxPoint as="offset"/>
                    </mxGeometry>
                </mxCell>
                <mxCell id="UbE4j-iB06DFf-TdbC5P-21" style="edgeStyle=orthogonalEdgeStyle;rounded=0;orthogonalLoop=1;jettySize=auto;html=1;entryX=0.985;entryY=0.546;entryDx=0;entryDy=0;entryPerimeter=0;startArrow=block;startFill=1;" parent="UbE4j-iB06DFf-TdbC5P-30" source="2" target="UbE4j-iB06DFf-TdbC5P-1" edge="1">
                    <mxGeometry relative="1" as="geometry">
                        <mxPoint x="250" y="89.00000000000023" as="sourcePoint"/>
                    </mxGeometry>
                </mxCell>
                <mxCell id="UbE4j-iB06DFf-TdbC5P-22" value="envío de &lt;br&gt;credenciales" style="edgeLabel;html=1;align=center;verticalAlign=middle;resizable=0;points=[];" parent="UbE4j-iB06DFf-TdbC5P-21" vertex="1" connectable="0">
                    <mxGeometry x="0.149" y="1" relative="1" as="geometry">
                        <mxPoint as="offset"/>
                    </mxGeometry>
                </mxCell>
                <mxCell id="UbE4j-iB06DFf-TdbC5P-27" style="edgeStyle=orthogonalEdgeStyle;rounded=0;orthogonalLoop=1;jettySize=auto;html=1;" parent="UbE4j-iB06DFf-TdbC5P-30" target="UbE4j-iB06DFf-TdbC5P-3" edge="1">
                    <mxGeometry relative="1" as="geometry">
                        <mxPoint x="328" y="89.00000000000023" as="sourcePoint"/>
                    </mxGeometry>
                </mxCell>
                <mxCell id="UbE4j-iB06DFf-TdbC5P-28" value="Token validado" style="edgeLabel;html=1;align=center;verticalAlign=middle;resizable=0;points=[];" parent="UbE4j-iB06DFf-TdbC5P-27" vertex="1" connectable="0">
                    <mxGeometry x="0.7174" y="2" relative="1" as="geometry">
                        <mxPoint as="offset"/>
                    </mxGeometry>
                </mxCell>
                <mxCell id="UbE4j-iB06DFf-TdbC5P-23" value="SIGED- Fronted" style="swimlane;" parent="UbE4j-iB06DFf-TdbC5P-30" vertex="1">
                    <mxGeometry x="420" y="195" width="120" height="125" as="geometry">
                        <mxRectangle x="585" y="260" width="90" height="30" as="alternateBounds"/>
                    </mxGeometry>
                </mxCell>
                <mxCell id="UbE4j-iB06DFf-TdbC5P-25" value="Manejo de Roles&amp;nbsp;" style="rounded=1;whiteSpace=wrap;html=1;" parent="UbE4j-iB06DFf-TdbC5P-23" vertex="1">
                    <mxGeometry x="16" y="35" width="74" height="35" as="geometry"/>
                </mxCell>
                <mxCell id="UbE4j-iB06DFf-TdbC5P-26" value="Registro de aplicaciones" style="rounded=1;whiteSpace=wrap;html=1;" parent="UbE4j-iB06DFf-TdbC5P-23" vertex="1">
                    <mxGeometry x="16" y="75" width="75" height="40" as="geometry"/>
                </mxCell>
                <mxCell id="2" value="" style="sketch=0;outlineConnect=0;fontColor=#232F3E;gradientColor=none;fillColor=#BF0816;strokeColor=none;dashed=0;verticalLabelPosition=bottom;verticalAlign=top;align=center;html=1;fontSize=12;fontStyle=0;aspect=fixed;pointerEvents=1;shape=mxgraph.aws4.data_encryption_key;" vertex="1" parent="UbE4j-iB06DFf-TdbC5P-30">
                    <mxGeometry x="260" y="50" width="62" height="78" as="geometry"/>
                </mxCell>
                <mxCell id="UbE4j-iB06DFf-TdbC5P-50" value="NuevoSIGED" style="swimlane;whiteSpace=wrap;html=1;" parent="1" vertex="1">
                    <mxGeometry x="20" y="-490" width="730" height="310" as="geometry"/>
                </mxCell>
                <mxCell id="UbE4j-iB06DFf-TdbC5P-51" value="Usuarios" style="image;aspect=fixed;html=1;points=[];align=center;fontSize=12;image=img/lib/azure2/intune/Devices.svg;" parent="UbE4j-iB06DFf-TdbC5P-50" vertex="1">
                    <mxGeometry x="60" y="140" width="68" height="60" as="geometry"/>
                </mxCell>
                <mxCell id="UbE4j-iB06DFf-TdbC5P-52" value="NSIGED- Backend" style="swimlane;" parent="UbE4j-iB06DFf-TdbC5P-50" vertex="1">
                    <mxGeometry x="573" y="92.5" width="137" height="117.5" as="geometry">
                        <mxRectangle x="585" y="260" width="90" height="30" as="alternateBounds"/>
                    </mxGeometry>
                </mxCell>
                <mxCell id="UbE4j-iB06DFf-TdbC5P-62" value="Manejo de Roles&amp;nbsp;" style="rounded=1;whiteSpace=wrap;html=1;" parent="UbE4j-iB06DFf-TdbC5P-52" vertex="1">
                    <mxGeometry x="22.5" y="30" width="67.5" height="30" as="geometry"/>
                </mxCell>
                <mxCell id="UbE4j-iB06DFf-TdbC5P-63" value="Manejo de Perfiles" style="rounded=1;whiteSpace=wrap;html=1;" parent="UbE4j-iB06DFf-TdbC5P-52" vertex="1">
                    <mxGeometry x="22.5" y="70" width="67.5" height="30" as="geometry"/>
                </mxCell>
                <mxCell id="UbE4j-iB06DFf-TdbC5P-65" style="edgeStyle=orthogonalEdgeStyle;rounded=0;orthogonalLoop=1;jettySize=auto;html=1;entryX=0;entryY=0.5;entryDx=0;entryDy=0;startArrow=classic;startFill=1;" parent="UbE4j-iB06DFf-TdbC5P-50" source="UbE4j-iB06DFf-TdbC5P-61" target="UbE4j-iB06DFf-TdbC5P-52" edge="1">
                    <mxGeometry relative="1" as="geometry">
                        <mxPoint x="560" y="120" as="targetPoint"/>
                    </mxGeometry>
                </mxCell>
                <mxCell id="UbE4j-iB06DFf-TdbC5P-61" value="NSIGED- Fronted" style="swimlane;" parent="UbE4j-iB06DFf-TdbC5P-50" vertex="1">
                    <mxGeometry x="370" y="62.5" width="151.84" height="177.5" as="geometry">
                        <mxRectangle x="585" y="260" width="90" height="30" as="alternateBounds"/>
                    </mxGeometry>
                </mxCell>
                <mxCell id="UbE4j-iB06DFf-TdbC5P-75" style="edgeStyle=orthogonalEdgeStyle;rounded=0;orthogonalLoop=1;jettySize=auto;html=1;dashed=1;dashPattern=12 12;" parent="UbE4j-iB06DFf-TdbC5P-61" edge="1">
                    <mxGeometry relative="1" as="geometry">
                        <mxPoint x="80" y="517.5" as="targetPoint"/>
                        <mxPoint x="76" y="177.5" as="sourcePoint"/>
                        <Array as="points">
                            <mxPoint x="80" y="178"/>
                            <mxPoint x="80" y="348"/>
                            <mxPoint x="81" y="348"/>
                            <mxPoint x="81" y="518"/>
                        </Array>
                    </mxGeometry>
                </mxCell>
                <mxCell id="UbE4j-iB06DFf-TdbC5P-76" value="Consulta de&lt;br&gt;usuario registrado" style="edgeLabel;html=1;align=center;verticalAlign=middle;resizable=0;points=[];" parent="UbE4j-iB06DFf-TdbC5P-75" vertex="1" connectable="0">
                    <mxGeometry x="-0.1814" y="1" relative="1" as="geometry">
                        <mxPoint x="-1" y="-40" as="offset"/>
                    </mxGeometry>
                </mxCell>
                <mxCell id="UbE4j-iB06DFf-TdbC5P-74" value="Página de acceso denegado" style="rounded=1;whiteSpace=wrap;html=1;" parent="UbE4j-iB06DFf-TdbC5P-61" vertex="1">
                    <mxGeometry x="20.92" y="137.5" width="110" height="30" as="geometry"/>
                </mxCell>
                <mxCell id="UbE4j-iB06DFf-TdbC5P-78" style="edgeStyle=orthogonalEdgeStyle;rounded=0;orthogonalLoop=1;jettySize=auto;html=1;entryX=0.5;entryY=0;entryDx=0;entryDy=0;" parent="UbE4j-iB06DFf-TdbC5P-61" source="UbE4j-iB06DFf-TdbC5P-68" target="UbE4j-iB06DFf-TdbC5P-74" edge="1">
                    <mxGeometry relative="1" as="geometry"/>
                </mxCell>
                <mxCell id="UbE4j-iB06DFf-TdbC5P-80" value="No" style="edgeLabel;html=1;align=center;verticalAlign=middle;resizable=0;points=[];" parent="UbE4j-iB06DFf-TdbC5P-78" vertex="1" connectable="0">
                    <mxGeometry x="-0.592" relative="1" as="geometry">
                        <mxPoint as="offset"/>
                    </mxGeometry>
                </mxCell>
                <mxCell id="UbE4j-iB06DFf-TdbC5P-79" style="edgeStyle=orthogonalEdgeStyle;rounded=0;orthogonalLoop=1;jettySize=auto;html=1;" parent="UbE4j-iB06DFf-TdbC5P-61" source="UbE4j-iB06DFf-TdbC5P-68" edge="1">
                    <mxGeometry relative="1" as="geometry">
                        <mxPoint x="200" y="67.5" as="targetPoint"/>
                    </mxGeometry>
                </mxCell>
                <mxCell id="UbE4j-iB06DFf-TdbC5P-81" value="Si" style="edgeLabel;html=1;align=center;verticalAlign=middle;resizable=0;points=[];" parent="UbE4j-iB06DFf-TdbC5P-79" vertex="1" connectable="0">
                    <mxGeometry x="-0.1762" relative="1" as="geometry">
                        <mxPoint as="offset"/>
                    </mxGeometry>
                </mxCell>
                <mxCell id="UbE4j-iB06DFf-TdbC5P-68" value="&lt;font style=&quot;font-size: 10px;&quot;&gt;El usuario &lt;br&gt;esta registrado &lt;br&gt;en SISEG ?&lt;/font&gt;" style="html=1;whiteSpace=wrap;aspect=fixed;shape=isoRectangle;fillColor=#FF9999;" parent="UbE4j-iB06DFf-TdbC5P-61" vertex="1">
                    <mxGeometry x="8.84" y="27" width="134.17" height="80.5" as="geometry"/>
                </mxCell>
                <mxCell id="3re4fcD2jmdWyRjlyjMW-6" value="4" style="ellipse;whiteSpace=wrap;html=1;aspect=fixed;rotation=0;gradientColor=#0057D2;strokeColor=none;gradientDirection=east;fillColor=#2395FF;rounded=0;pointerEvents=0;fontFamily=Helvetica;fontSize=16;fontColor=#FFFFFF;spacingTop=4;spacingBottom=4;spacingLeft=4;spacingRight=4;points=[];fontStyle=1" parent="UbE4j-iB06DFf-TdbC5P-61" vertex="1">
                    <mxGeometry x="100.92" y="97.5" width="30" height="30" as="geometry"/>
                </mxCell>
                <mxCell id="3re4fcD2jmdWyRjlyjMW-1" value="1" style="ellipse;whiteSpace=wrap;html=1;aspect=fixed;rotation=0;gradientColor=#0057D2;strokeColor=none;gradientDirection=east;fillColor=#2395FF;rounded=0;pointerEvents=0;fontFamily=Helvetica;fontSize=16;fontColor=#FFFFFF;spacingTop=4;spacingBottom=4;spacingLeft=4;spacingRight=4;points=[];fontStyle=1" parent="UbE4j-iB06DFf-TdbC5P-50" vertex="1">
                    <mxGeometry x="180" y="200" width="30" height="30" as="geometry"/>
                </mxCell>
                <mxCell id="3re4fcD2jmdWyRjlyjMW-2" value="2" style="ellipse;whiteSpace=wrap;html=1;aspect=fixed;rotation=0;gradientColor=#0057D2;strokeColor=none;gradientDirection=east;fillColor=#2395FF;rounded=0;pointerEvents=0;fontFamily=Helvetica;fontSize=16;fontColor=#FFFFFF;spacingTop=4;spacingBottom=4;spacingLeft=4;spacingRight=4;points=[];fontStyle=1" parent="UbE4j-iB06DFf-TdbC5P-50" vertex="1">
                    <mxGeometry x="313" y="250" width="30" height="30" as="geometry"/>
                </mxCell>
                <mxCell id="UbE4j-iB06DFf-TdbC5P-56" style="edgeStyle=orthogonalEdgeStyle;rounded=0;orthogonalLoop=1;jettySize=auto;html=1;startArrow=block;startFill=1;dashed=1;dashPattern=12 12;" parent="1" edge="1">
                    <mxGeometry relative="1" as="geometry">
                        <mxPoint x="310.0344827586207" y="-50" as="sourcePoint"/>
                        <mxPoint x="150" y="-312" as="targetPoint"/>
                        <Array as="points">
                            <mxPoint x="310" y="-70"/>
                            <mxPoint x="249" y="-70"/>
                            <mxPoint x="249" y="-312"/>
                        </Array>
                    </mxGeometry>
                </mxCell>
                <mxCell id="UbE4j-iB06DFf-TdbC5P-57" value="envío de &lt;br&gt;credenciales" style="edgeLabel;html=1;align=center;verticalAlign=middle;resizable=0;points=[];" parent="UbE4j-iB06DFf-TdbC5P-56" vertex="1" connectable="0">
                    <mxGeometry x="0.149" y="1" relative="1" as="geometry">
                        <mxPoint as="offset"/>
                    </mxGeometry>
                </mxCell>
                <mxCell id="UbE4j-iB06DFf-TdbC5P-54" style="edgeStyle=orthogonalEdgeStyle;rounded=0;orthogonalLoop=1;jettySize=auto;html=1;dashed=1;dashPattern=12 12;" parent="1" source="2" edge="1">
                    <mxGeometry relative="1" as="geometry">
                        <mxPoint x="324.0344827586207" y="-50" as="sourcePoint"/>
                        <mxPoint x="390" y="-360" as="targetPoint"/>
                        <Array as="points">
                            <mxPoint x="324" y="-360"/>
                        </Array>
                    </mxGeometry>
                </mxCell>
                <mxCell id="UbE4j-iB06DFf-TdbC5P-55" value="redirección&lt;br&gt;(Token)" style="edgeLabel;html=1;align=center;verticalAlign=middle;resizable=0;points=[];" parent="UbE4j-iB06DFf-TdbC5P-54" vertex="1" connectable="0">
                    <mxGeometry x="0.16" y="-1" relative="1" as="geometry">
                        <mxPoint x="-1" y="2" as="offset"/>
                    </mxGeometry>
                </mxCell>
                <mxCell id="UbE4j-iB06DFf-TdbC5P-77" style="edgeStyle=orthogonalEdgeStyle;rounded=0;orthogonalLoop=1;jettySize=auto;html=1;entryX=0.715;entryY=0.764;entryDx=0;entryDy=0;entryPerimeter=0;dashed=1;dashPattern=12 12;" parent="1" source="UbE4j-iB06DFf-TdbC5P-23" target="UbE4j-iB06DFf-TdbC5P-68" edge="1">
                    <mxGeometry relative="1" as="geometry">
                        <Array as="points">
                            <mxPoint x="530" y="-339"/>
                        </Array>
                    </mxGeometry>
                </mxCell>
                <mxCell id="3re4fcD2jmdWyRjlyjMW-3" value="3" style="ellipse;whiteSpace=wrap;html=1;aspect=fixed;rotation=0;gradientColor=#0057D2;strokeColor=none;gradientDirection=east;fillColor=#2395FF;rounded=0;pointerEvents=0;fontFamily=Helvetica;fontSize=16;fontColor=#FFFFFF;spacingTop=4;spacingBottom=4;spacingLeft=4;spacingRight=4;points=[];fontStyle=1" parent="1" vertex="1">
                    <mxGeometry x="432" y="-136" width="30" height="30" as="geometry"/>
                </mxCell>
            </root>
        </mxGraphModel>
    </diagram>
</mxfile>